#N canvas 41 15 552 618 10;
#X msg 57 189 \$2 \$1;
#X obj 57 210 route 0;
#X obj 57 372 list-find;
#X obj 57 435 list-delete;
#X obj 57 393 t b f;
#X obj 103 291 list-unique;
#X obj 103 270 list;
#X msg 103 231 \$2;
#X obj 57 414 list append;
#X obj 103 312 s \$0-updated-list;
#X obj 128 250 r \$0-updated-list;
#X obj 131 340 r \$0-updated-list;
#X obj 57 456 s \$0-updated-list;
#X obj -51 480 r \$0-updated-list;
#X obj 2 91 s \$0-updated-list;
#X msg 2 70 list;
#X obj 10 46 loadbang;
#X obj -51 502 outlet;
#X obj -52 -26 inlet;
#X obj -52 23 route bang clear;
#X text 143 64 the list is sorted lifo order;
#X text 143 18 expects |notenum noteval( messages;
#X text 143 4 outputs a list of midi notes down;
#X text 142 33 |bang( outputs current list;
#X text 142 48 |clear( clears the list;
#X text 141 78 depends on the list-abs abstractions;
#X text -10 -26 |x37v-midinotes_down_list| by Alex Norman (http://x37v.info)
;
#X connect 0 0 1 0;
#X connect 1 0 2 0;
#X connect 1 1 7 0;
#X connect 2 0 4 0;
#X connect 3 0 12 0;
#X connect 4 0 8 0;
#X connect 4 1 3 1;
#X connect 5 0 9 0;
#X connect 6 0 5 0;
#X connect 7 0 6 0;
#X connect 8 0 3 0;
#X connect 10 0 6 1;
#X connect 11 0 2 1;
#X connect 11 0 8 1;
#X connect 13 0 17 0;
#X connect 15 0 14 0;
#X connect 16 0 15 0;
#X connect 18 0 19 0;
#X connect 19 0 6 0;
#X connect 19 1 15 0;
#X connect 19 2 0 0;
