#N canvas 0 15 999 734 10;
#X obj 300 217 cnv 15 370 17 empty \$0-canvas empty 20 12 0 14 -262144
-262144 0;
#X obj 13 -52 inlet;
#X obj 303 195 route 0 1 2 3 4 5 6 7 8 9 10 11 12 13 14 15;
#X obj 265 104 until;
#X msg 265 142 \$1 0;
#X obj 302 218 tgl 15 0 empty empty empty 17 7 0 10 -45076 -262144
-262144 0 1;
#X obj 320 218 tgl 15 0 empty empty empty 17 7 0 10 -228856 -45076
-257985 0 1;
#X obj 338 218 tgl 15 0 empty empty empty 17 7 0 10 -228856 -45076
-1 0 1;
#X obj 355 218 tgl 15 0 empty empty empty 17 7 0 10 -228856 -45076
-1 0 1;
#X obj 372 218 tgl 15 0 empty empty empty 17 7 0 10 -45076 -262144
-1 0 1;
#X obj 389 218 tgl 15 0 empty empty empty 17 7 0 10 -228856 -45076
-1 0 1;
#X obj 407 218 tgl 15 0 empty empty empty 17 7 0 10 -228856 -45076
-1 0 1;
#X obj 424 218 tgl 15 0 empty empty empty 17 7 0 10 -228856 -45076
-1 0 1;
#X obj 441 218 tgl 15 0 empty empty empty 17 7 0 10 -45076 -262144
-1 0 1;
#X obj 458 218 tgl 15 0 empty empty empty 17 7 0 10 -228856 -45076
-1 0 1;
#X obj 476 218 tgl 15 0 empty empty empty 17 7 0 10 -228856 -45076
-1 0 1;
#X obj 493 218 tgl 15 0 empty empty empty 17 7 0 10 -228856 -45076
-1 0 1;
#X obj 510 218 tgl 15 0 empty empty empty 17 7 0 10 -45076 -262144
-1 0 1;
#X obj 527 218 tgl 15 0 empty empty empty 17 7 0 10 -228856 -45076
-1 0 1;
#X obj 544 218 tgl 15 0 empty empty empty 17 7 0 10 -228856 -45076
-1 0 1;
#X obj 561 218 tgl 15 0 empty empty empty 17 7 0 10 -228856 -45076
-1 0 1;
#X obj 322 483 outlet;
#X obj 322 460 r \$0-cmdout;
#X obj 19 -8 s \$0-id;
#X obj 13 13 + 1;
#N canvas 305 191 694 320 to_me_or_not 0;
#X obj 79 65 list split 1;
#X obj 109 85 r \$0-id;
#X obj 79 104 == -1;
#X obj 28 124 spigot 0;
#X obj 28 38 t a a;
#X obj 50 148 spigot 1;
#X obj 28 17 inlet;
#X obj 27 267 outlet;
#X obj 50 169 outlet;
#X text 176 23 if this mesg matches our id output it to the left [trim
id];
#X text 176 40 else \, output it to the right [id intact];
#X obj 101 128 == 0;
#X obj 28 189 list;
#X obj 28 208 list split 1;
#X obj 27 245 list trim;
#X connect 0 0 2 0;
#X connect 1 0 2 1;
#X connect 2 0 3 1;
#X connect 2 0 11 0;
#X connect 3 0 12 0;
#X connect 4 0 3 0;
#X connect 4 0 5 0;
#X connect 4 1 0 0;
#X connect 5 0 8 0;
#X connect 6 0 4 0;
#X connect 11 0 5 1;
#X connect 12 0 13 0;
#X connect 13 1 14 0;
#X connect 14 0 7 0;
#X restore 210 -5 pd to_me_or_not;
#X obj 310 15 s \$0-cmdout;
#X obj 13 93 s \$0-cmdout;
#X text 387 -32 if we get an id msg store the id # \, output id # +
1;
#X obj 302 429 list append;
#X obj 318 390 r \$0-id;
#X obj 302 409 f;
#X obj 302 369 t b a;
#X msg 13 35 id \$1;
#X obj 77 -7 bang;
#X msg 77 15 unsel_all;
#X obj 13 -30 route id unsel_all clear_all;
#X msg 141 -5 clear_all;
#X obj 587 218 hsl 40 15 0 1 0 0 empty empty empty -2 -8 0 10 -262144
-1 -1 3313 1;
#X obj 633 218 tgl 15 0 empty empty empty 17 7 0 10 -262144 -1 -1 1
1;
#X obj 615 118 loadbang;
#X msg 633 193 1;
#X obj 653 218 bng 15 250 50 0 empty empty empty 17 7 0 10 -262144
-1 -1;
#X obj 711 24 inlet;
#N canvas 305 191 694 320 to_me_or_not 0;
#X obj 79 65 list split 1;
#X obj 109 85 r \$0-id;
#X obj 79 104 == -1;
#X obj 28 124 spigot 0;
#X obj 28 38 t a a;
#X obj 50 148 spigot 1;
#X obj 28 17 inlet;
#X obj 27 267 outlet;
#X obj 50 169 outlet;
#X text 176 23 if this mesg matches our id output it to the left [trim
id];
#X text 176 40 else \, output it to the right [id intact];
#X obj 101 128 == 0;
#X obj 28 189 list;
#X obj 28 208 list split 1;
#X obj 27 245 list trim;
#X connect 0 0 2 0;
#X connect 1 0 2 1;
#X connect 2 0 3 1;
#X connect 2 0 11 0;
#X connect 3 0 12 0;
#X connect 4 0 3 0;
#X connect 4 0 5 0;
#X connect 4 1 0 0;
#X connect 5 0 8 0;
#X connect 6 0 4 0;
#X connect 11 0 5 1;
#X connect 12 0 13 0;
#X connect 13 1 14 0;
#X connect 14 0 7 0;
#X restore 711 50 pd to_me_or_not;
#X obj 813 72 s \$0-trig-out;
#X obj 578 433 r \$0-trig-out;
#X obj 566 471 outlet;
#X obj 582 372 r \$0-id;
#X obj 566 391 i;
#X obj 566 353 t b f;
#X obj 566 410 pack f f;
#X obj 566 311 f;
#X obj 566 332 spigot;
#X obj 615 139 t b b b;
#X msg 660 193 0;
#X obj 670 217 cnv 15 100 17 empty \$0-label empty 2 10 0 8 -66577
-262144 0;
#X obj 826 340 s \$0-label;
#X obj 320 89 s \$0-mute;
#X obj 545 139 r \$0-mute;
#X text 394 -19 if we get a msg with our id \, do something \, otherwise
pass it along;
#X msg 860 291 color 2;
#X msg 867 312 color \$1;
#X obj 826 138 r \$0-label_cmds;
#X obj 376 66 s \$0-label_cmds;
#X msg 942 223 label \$1;
#X msg 826 201 label;
#X obj 826 178 route clear color;
#X obj 942 203 symbol;
#X msg 867 227 color \$1;
#X obj 884 204 f;
#X obj 265 123 x37v-count 16;
#N canvas 0 15 999 338 add_address_to_toggle 0;
#X obj 123 86 pack f f;
#X obj 123 44 t b f;
#X obj 184 86 pack f f;
#X obj 184 44 t b f;
#X obj 1 86 pack f f;
#X obj 1 44 t b f;
#X msg 1 65 0;
#X obj 62 86 pack f f;
#X obj 62 44 t b f;
#X msg 62 65 1;
#X msg 123 65 2;
#X msg 184 65 3;
#X obj 368 86 pack f f;
#X obj 368 44 t b f;
#X obj 429 86 pack f f;
#X obj 429 44 t b f;
#X obj 246 86 pack f f;
#X obj 246 44 t b f;
#X obj 307 86 pack f f;
#X obj 307 44 t b f;
#X msg 246 65 4;
#X msg 307 65 5;
#X msg 368 65 6;
#X msg 429 65 7;
#X obj 615 86 pack f f;
#X obj 615 44 t b f;
#X obj 676 86 pack f f;
#X obj 676 44 t b f;
#X obj 493 86 pack f f;
#X obj 493 44 t b f;
#X obj 554 86 pack f f;
#X obj 554 44 t b f;
#X obj 860 86 pack f f;
#X obj 860 44 t b f;
#X obj 921 86 pack f f;
#X obj 921 44 t b f;
#X obj 738 86 pack f f;
#X obj 738 44 t b f;
#X obj 799 86 pack f f;
#X obj 799 44 t b f;
#X msg 493 65 8;
#X msg 554 65 9;
#X msg 615 65 10;
#X msg 676 65 11;
#X msg 738 65 12;
#X msg 799 65 13;
#X msg 860 65 14;
#X msg 921 65 15;
#X obj 1 22 inlet;
#X obj 429 234 outlet;
#X obj 62 22 inlet;
#X obj 125 22 inlet;
#X obj 182 22 inlet;
#X obj 247 22 inlet;
#X obj 306 22 inlet;
#X obj 366 18 inlet;
#X obj 429 18 inlet;
#X obj 492 18 inlet;
#X obj 554 18 inlet;
#X obj 614 18 inlet;
#X obj 673 18 inlet;
#X obj 737 18 inlet;
#X obj 798 22 inlet;
#X obj 859 22 inlet;
#X obj 917 22 inlet;
#X connect 0 0 49 0;
#X connect 1 0 10 0;
#X connect 1 1 0 1;
#X connect 2 0 49 0;
#X connect 3 0 11 0;
#X connect 3 1 2 1;
#X connect 4 0 49 0;
#X connect 5 0 6 0;
#X connect 5 1 4 1;
#X connect 6 0 4 0;
#X connect 7 0 49 0;
#X connect 8 0 9 0;
#X connect 8 1 7 1;
#X connect 9 0 7 0;
#X connect 10 0 0 0;
#X connect 11 0 2 0;
#X connect 12 0 49 0;
#X connect 13 0 22 0;
#X connect 13 1 12 1;
#X connect 14 0 49 0;
#X connect 15 0 23 0;
#X connect 15 1 14 1;
#X connect 16 0 49 0;
#X connect 17 0 20 0;
#X connect 17 1 16 1;
#X connect 18 0 49 0;
#X connect 19 0 21 0;
#X connect 19 1 18 1;
#X connect 20 0 16 0;
#X connect 21 0 18 0;
#X connect 22 0 12 0;
#X connect 23 0 14 0;
#X connect 24 0 49 0;
#X connect 25 0 42 0;
#X connect 25 1 24 1;
#X connect 26 0 49 0;
#X connect 27 0 43 0;
#X connect 27 1 26 1;
#X connect 28 0 49 0;
#X connect 29 0 40 0;
#X connect 29 1 28 1;
#X connect 30 0 49 0;
#X connect 31 0 41 0;
#X connect 31 1 30 1;
#X connect 32 0 49 0;
#X connect 33 0 46 0;
#X connect 33 1 32 1;
#X connect 34 0 49 0;
#X connect 35 0 47 0;
#X connect 35 1 34 1;
#X connect 36 0 49 0;
#X connect 37 0 44 0;
#X connect 37 1 36 1;
#X connect 38 0 49 0;
#X connect 39 0 45 0;
#X connect 39 1 38 1;
#X connect 40 0 28 0;
#X connect 41 0 30 0;
#X connect 42 0 24 0;
#X connect 43 0 26 0;
#X connect 44 0 36 0;
#X connect 45 0 38 0;
#X connect 46 0 32 0;
#X connect 47 0 34 0;
#X connect 48 0 5 0;
#X connect 50 0 8 0;
#X connect 51 0 1 0;
#X connect 52 0 3 0;
#X connect 53 0 17 0;
#X connect 54 0 19 0;
#X connect 55 0 13 0;
#X connect 56 0 15 0;
#X connect 57 0 29 0;
#X connect 58 0 31 0;
#X connect 59 0 25 0;
#X connect 60 0 27 0;
#X connect 61 0 37 0;
#X connect 62 0 39 0;
#X connect 63 0 33 0;
#X connect 64 0 35 0;
#X restore 302 346 pd add_address_to_toggle;
#X msg 39 314 color \$1;
#X msg 159 314 color \$1;
#X obj 39 216 select 1 0;
#X obj 179 273 r \$0-unsel_color;
#X obj 64 273 r \$0-sel_color;
#X obj 39 401 s \$0-label;
#X obj 159 366 s \$0-canvas;
#X obj 210 35 route select clear_all mute label volume;
#X obj 265 85 bang;
#X msg 39 141 0;
#X obj 39 293 i 19;
#X obj 159 293 i 0;
#X msg 49 373 color 2;
#X msg 638 164 0.75;
#X connect 1 0 36 0;
#X connect 2 0 5 0;
#X connect 2 1 6 0;
#X connect 2 2 7 0;
#X connect 2 3 8 0;
#X connect 2 4 9 0;
#X connect 2 5 10 0;
#X connect 2 6 11 0;
#X connect 2 7 12 0;
#X connect 2 8 13 0;
#X connect 2 9 14 0;
#X connect 2 10 15 0;
#X connect 2 11 16 0;
#X connect 2 12 17 0;
#X connect 2 13 18 0;
#X connect 2 14 19 0;
#X connect 2 15 20 0;
#X connect 3 0 71 0;
#X connect 4 0 2 0;
#X connect 5 0 72 0;
#X connect 6 0 72 1;
#X connect 7 0 72 2;
#X connect 8 0 72 3;
#X connect 9 0 72 4;
#X connect 10 0 72 5;
#X connect 11 0 72 6;
#X connect 12 0 72 7;
#X connect 13 0 72 8;
#X connect 14 0 72 9;
#X connect 15 0 72 10;
#X connect 16 0 72 11;
#X connect 17 0 72 12;
#X connect 18 0 72 13;
#X connect 19 0 72 14;
#X connect 20 0 72 15;
#X connect 22 0 21 0;
#X connect 24 0 33 0;
#X connect 25 0 80 0;
#X connect 25 1 26 0;
#X connect 29 0 21 0;
#X connect 30 0 31 1;
#X connect 31 0 29 0;
#X connect 32 0 31 0;
#X connect 32 1 29 1;
#X connect 33 0 27 0;
#X connect 34 0 35 0;
#X connect 35 0 27 0;
#X connect 35 0 82 0;
#X connect 36 0 23 0;
#X connect 36 0 24 0;
#X connect 36 1 34 0;
#X connect 36 2 37 0;
#X connect 36 3 25 0;
#X connect 37 0 27 0;
#X connect 37 0 80 0;
#X connect 38 0 52 1;
#X connect 39 0 53 1;
#X connect 40 0 54 0;
#X connect 41 0 39 0;
#X connect 42 0 52 0;
#X connect 43 0 44 0;
#X connect 44 0 42 0;
#X connect 44 1 45 0;
#X connect 46 0 47 0;
#X connect 48 0 49 1;
#X connect 49 0 51 0;
#X connect 50 0 49 0;
#X connect 50 1 51 1;
#X connect 51 0 47 0;
#X connect 52 0 53 0;
#X connect 53 0 50 0;
#X connect 54 0 41 0;
#X connect 54 1 86 0;
#X connect 54 2 55 0;
#X connect 55 0 39 0;
#X connect 59 0 39 0;
#X connect 61 0 57 0;
#X connect 62 0 57 0;
#X connect 63 0 67 0;
#X connect 65 0 57 0;
#X connect 66 0 57 0;
#X connect 67 0 66 0;
#X connect 67 1 70 0;
#X connect 67 2 68 0;
#X connect 68 0 65 0;
#X connect 69 0 57 0;
#X connect 70 0 69 0;
#X connect 71 0 4 0;
#X connect 71 1 3 1;
#X connect 72 0 32 0;
#X connect 73 0 78 0;
#X connect 73 0 79 0;
#X connect 74 0 79 0;
#X connect 74 0 85 0;
#X connect 75 0 83 0;
#X connect 75 1 84 0;
#X connect 76 0 84 1;
#X connect 77 0 83 1;
#X connect 80 0 75 0;
#X connect 80 1 81 0;
#X connect 80 2 58 0;
#X connect 80 3 64 0;
#X connect 80 4 38 0;
#X connect 80 5 2 0;
#X connect 81 0 3 0;
#X connect 82 0 75 0;
#X connect 83 0 73 0;
#X connect 84 0 74 0;
#X connect 85 0 78 0;
#X connect 86 0 38 0;
#X coords 0 -1 1 1 470 17 1 300 217;
