#N canvas 78 15 912 421 10;
#X msg 173 241 0;
#X msg 204 165 1;
#X obj 204 345 metro 50;
#X obj 204 370 spigot;
#X obj 204 241 pipe 250;
#X msg 264 264 0;
#X obj 128 168 t f b;
#X msg 160 187 clear;
#X obj 128 87 select 0;
#X obj 5 5 inlet;
#X obj 204 394 outlet;
#X obj 5 31 route delay repeat;
#X obj 257 220 r \$0-delay;
#X obj 257 324 r \$0-repeat;
#X obj 5 91 s \$0-delay;
#X obj 35 68 s \$0-repeat;
#N canvas 118 61 510 286 dollartest1 0;
#X obj 61 138 select s;
#X obj 6 32 t b b;
#X obj 114 100 makefilename $%d-test;
#X obj 6 100 symbol \$1-test;
#X msg 114 80 1;
#X obj 114 160 t b;
#X obj 61 163 t b;
#X text 144 161 this is \$1;
#X obj 114 182 float \$1;
#X obj 61 224 outlet;
#X obj 112 224 outlet;
#X obj 6 4 inlet;
#X text 161 223 <- bang on no dollar;
#X text 54 8 taken from an example by IOhannes m zmolnig on the pd
list;
#X connect 0 0 6 0;
#X connect 0 1 5 0;
#X connect 1 0 3 0;
#X connect 1 1 4 0;
#X connect 2 0 0 1;
#X connect 3 0 0 0;
#X connect 4 0 2 0;
#X connect 5 0 8 0;
#X connect 6 0 10 0;
#X connect 8 0 9 0;
#X connect 11 0 1 0;
#X restore 393 43 pd dollartest1;
#N canvas 369 223 510 286 dollartest2 0;
#X obj 61 138 select s;
#X obj 6 32 t b b;
#X obj 114 100 makefilename $%d-test;
#X obj 114 160 t b;
#X obj 61 163 t b;
#X obj 61 224 outlet;
#X obj 112 224 outlet;
#X obj 6 4 inlet;
#X text 161 223 <- bang on no dollar;
#X text 54 8 taken from an example by IOhannes m zmolnig on the pd
list;
#X obj 6 100 symbol \$2-test;
#X msg 114 80 2;
#X obj 114 182 float \$2;
#X text 144 161 this is \$2;
#X connect 0 0 4 0;
#X connect 0 1 3 0;
#X connect 1 0 10 0;
#X connect 1 1 11 0;
#X connect 2 0 0 1;
#X connect 3 0 12 0;
#X connect 4 0 6 0;
#X connect 7 0 1 0;
#X connect 10 0 0 0;
#X connect 11 0 2 0;
#X connect 12 0 5 0;
#X restore 517 42 pd dollartest2;
#X msg 612 61 250;
#X msg 488 62 50;
#X obj 393 10 loadbang;
#X obj 393 104 s \$0-repeat;
#X obj 517 103 s \$0-delay;
#X text 644 61 <- defaults;
#X text 458 10 test for creation arguments \, and set defaults;
#X text 100 6 by Alex Norman (http://x37v.info);
#X obj 204 187 t f f b b;
#X text 388 134 this abstraction sends a bang on non zero \, and then
after a delay \, sends repeated bangs until it gets a zero input;
#X connect 0 0 3 1;
#X connect 0 0 2 0;
#X connect 1 0 26 0;
#X connect 2 0 3 0;
#X connect 3 0 10 0;
#X connect 4 0 2 0;
#X connect 5 0 2 0;
#X connect 6 0 0 0;
#X connect 6 1 7 0;
#X connect 7 0 4 0;
#X connect 8 0 6 0;
#X connect 8 1 1 0;
#X connect 9 0 11 0;
#X connect 11 0 14 0;
#X connect 11 1 15 0;
#X connect 11 2 8 0;
#X connect 12 0 4 1;
#X connect 13 0 2 1;
#X connect 16 0 21 0;
#X connect 16 1 19 0;
#X connect 17 0 22 0;
#X connect 17 1 18 0;
#X connect 18 0 22 0;
#X connect 19 0 21 0;
#X connect 20 0 16 0;
#X connect 20 0 17 0;
#X connect 26 0 4 0;
#X connect 26 1 3 1;
#X connect 26 2 10 0;
#X connect 26 3 5 0;
