#N canvas 283 265 716 445 10;
#X obj 119 102 bng 15 100 50 0 empty empty empty 17 7 0 10 -262144
-1 -1;
#X obj 136 102 bng 15 100 50 0 empty empty empty 17 7 0 10 -262144
-1 -1;
#X obj 153 102 bng 15 100 50 0 empty empty empty 17 7 0 10 -262144
-1 -1;
#X obj 170 102 bng 15 100 50 0 empty empty empty 17 7 0 10 -262144
-1 -1;
#X obj 187 102 bng 15 100 50 0 empty empty empty 17 7 0 10 -262144
-1 -1;
#X obj 204 102 bng 15 100 50 0 empty empty empty 17 7 0 10 -262144
-1 -1;
#X obj 221 102 bng 15 100 50 0 empty empty empty 17 7 0 10 -262144
-1 -1;
#X obj 238 102 bng 15 100 50 0 empty empty empty 17 7 0 10 -262144
-1 -1;
#X obj 255 102 bng 15 100 50 0 empty empty empty 17 7 0 10 -262144
-1 -1;
#X obj 272 102 bng 15 100 50 0 empty empty empty 17 7 0 10 -262144
-1 -1;
#X obj 289 102 bng 15 100 50 0 empty empty empty 17 7 0 10 -262144
-1 -1;
#X obj 306 102 bng 15 100 50 0 empty empty empty 17 7 0 10 -262144
-1 -1;
#X obj 323 102 bng 15 100 50 0 empty empty empty 17 7 0 10 -262144
-1 -1;
#X obj 340 102 bng 15 100 50 0 empty empty empty 17 7 0 10 -262144
-1 -1;
#X obj 357 102 bng 15 100 50 0 empty empty empty 17 7 0 10 -262144
-1 -1;
#X obj 102 48 route 0 1 2 3 4 5 6 7 8 9 10 11 12 13 14 15;
#X msg 119 176 1;
#X msg 136 156 2;
#X msg 153 136 3;
#X msg 170 195 4;
#X msg 187 175 5;
#X msg 204 155 6;
#X msg 221 135 7;
#X msg 238 197 8;
#X msg 255 177 9;
#X msg 272 157 10;
#X msg 289 137 11;
#X msg 306 196 12;
#X msg 323 176 13;
#X msg 340 156 14;
#X msg 357 136 15;
#X obj 227 422 outlet;
#X obj 102 24 inlet;
#X obj 102 102 bng 15 100 50 0 empty empty empty 17 7 0 10 -262144
-1 -1;
#X msg 102 196 0;
#X connect 0 0 16 0;
#X connect 1 0 17 0;
#X connect 2 0 18 0;
#X connect 3 0 19 0;
#X connect 4 0 20 0;
#X connect 5 0 21 0;
#X connect 6 0 22 0;
#X connect 7 0 23 0;
#X connect 8 0 24 0;
#X connect 9 0 25 0;
#X connect 10 0 26 0;
#X connect 11 0 27 0;
#X connect 12 0 28 0;
#X connect 13 0 29 0;
#X connect 14 0 30 0;
#X connect 15 0 33 0;
#X connect 15 1 0 0;
#X connect 15 2 1 0;
#X connect 15 3 2 0;
#X connect 15 4 3 0;
#X connect 15 5 4 0;
#X connect 15 6 5 0;
#X connect 15 7 6 0;
#X connect 15 8 7 0;
#X connect 15 9 8 0;
#X connect 15 10 9 0;
#X connect 15 11 10 0;
#X connect 15 12 11 0;
#X connect 15 13 12 0;
#X connect 15 14 13 0;
#X connect 15 15 14 0;
#X connect 16 0 31 0;
#X connect 17 0 31 0;
#X connect 18 0 31 0;
#X connect 19 0 31 0;
#X connect 20 0 31 0;
#X connect 21 0 31 0;
#X connect 22 0 31 0;
#X connect 23 0 31 0;
#X connect 24 0 31 0;
#X connect 25 0 31 0;
#X connect 26 0 31 0;
#X connect 27 0 31 0;
#X connect 28 0 31 0;
#X connect 29 0 31 0;
#X connect 30 0 31 0;
#X connect 32 0 15 0;
#X connect 33 0 34 0;
#X connect 34 0 31 0;
#X coords 0 -1 1 1 274 19 2 100 100;
