#N canvas 104 57 473 510 10;
#X obj 110 118 vsl 15 128 0 120 0 0 empty empty freq -8 -9 0 10 -262144
-66577 -66577 4445 1;
#X obj 23 282 int;
#X obj 100 248 nbx 3 14 0 120 0 0 empty empty empty 0 -8 0 10 -262144
-66577 -66577 42 256;
#X obj 102 303 t b f b;
#X msg 102 333 1;
#X msg 147 333 0;
#X obj 102 270 int;
#X obj 49 368 spigot 1;
#X obj 115 410 outlet;
#X obj 44 23 inlet;
#X msg 273 85 send foo;
#X msg 273 110 receive foo_r;
#X obj 125 369 spigot 1;
#X obj 23 305 t b f b;
#X msg 23 335 1;
#X msg 68 335 0;
#X obj 44 51 route range color;
#X msg 266 53 color 0 1 0;
#X msg 131 12 range 0 100;
#X msg 6 100 range \$1 \$2;
#X msg 102 81 color \$1 \$2 \$3;
#X msg 250 18 label;
#X connect 0 0 1 0;
#X connect 1 0 13 0;
#X connect 2 0 6 0;
#X connect 3 0 4 0;
#X connect 3 1 12 0;
#X connect 3 2 5 0;
#X connect 4 0 7 1;
#X connect 5 0 7 1;
#X connect 6 0 3 0;
#X connect 6 0 8 0;
#X connect 7 0 2 0;
#X connect 9 0 16 0;
#X connect 9 0 0 0;
#X connect 10 0 0 0;
#X connect 11 0 0 0;
#X connect 12 0 0 0;
#X connect 13 0 14 0;
#X connect 13 1 7 0;
#X connect 13 2 15 0;
#X connect 14 0 12 1;
#X connect 15 0 12 1;
#X connect 16 0 19 0;
#X connect 16 1 20 0;
#X connect 17 0 0 0;
#X connect 17 0 2 0;
#X connect 18 0 16 0;
#X connect 19 0 2 0;
#X connect 20 0 2 0;
#X connect 21 0 0 0;
#X coords 0 -1 1 1 36 162 2 100 100;
