#N canvas 165 15 836 675 10;
#X obj 100 80 cnv 15 472 340 empty empty empty 20 12 0 14 -1 -66577
0;
#X obj 57 6 inlet;
#X obj 101 484 outlet;
#X obj 103 85 bng 15 100 50 0 empty empty empty 17 7 0 10 -262144 -258699
-1;
#X obj 103 55 route 0 1 2 3 4 5 6 7 8 9 10 11 12 13 14 15;
#X obj 120 85 bng 15 100 50 0 empty empty empty 17 7 0 10 -262144 -1
-1;
#X obj 137 85 bng 15 100 50 0 empty empty empty 17 7 0 10 -262144 -1
-1;
#X obj 154 85 bng 15 100 50 0 empty empty empty 17 7 0 10 -262144 -1
-1;
#X obj 172 85 bng 15 100 50 0 empty empty empty 17 7 0 10 -262144 -258699
-1;
#X obj 189 85 bng 15 100 50 0 empty empty empty 17 7 0 10 -262144 -1
-1;
#X obj 206 85 bng 15 100 50 0 empty empty empty 17 7 0 10 -262144 -1
-1;
#X obj 223 85 bng 15 100 50 0 empty empty empty 17 7 0 10 -262144 -1
-1;
#X obj 241 85 bng 15 100 50 0 empty empty empty 17 7 0 10 -262144 -258699
-1;
#X obj 258 85 bng 15 100 50 0 empty empty empty 17 7 0 10 -262144 -1
-1;
#X obj 275 85 bng 15 100 50 0 empty empty empty 17 7 0 10 -262144 -1
-1;
#X obj 292 85 bng 15 100 50 0 empty empty empty 17 7 0 10 -262144 -1
-1;
#X obj 310 85 bng 15 100 50 0 empty empty empty 17 7 0 10 -262144 -258699
-1;
#X obj 327 85 bng 15 100 50 0 empty empty empty 17 7 0 10 -262144 -1
-1;
#X obj 344 85 bng 15 100 50 0 empty empty empty 17 7 0 10 -262144 -1
-1;
#X obj 361 85 bng 15 100 50 0 empty empty empty 17 7 0 10 -262144 -1
-1;
#N canvas 269 156 596 554 guts 0;
#X obj 57 -65 inlet;
#X obj 57 264 outlet;
#X obj 167 262 outlet;
#X msg 91 179 id 0;
#X obj 98 71 loadbang;
#X msg 89 115 unsel_all;
#X obj 57 71 t f b;
#X msg 57 136 \$1 select 1;
#X obj 215 120 t b a b;
#X obj 261 167 s \$0-output_toggle;
#X msg 261 142 0;
#X msg 215 142 1;
#X text 99 -63 select \, step \, set \, any;
#X msg 196 -18 clear_all;
#X obj 57 -41 route select step set clear;
#N canvas 0 15 450 300 nop 0;
#X obj 86 30 inlet;
#X obj 86 55 outlet;
#X connect 0 0 1 0;
#X restore 264 35 pd nop;
#N canvas 0 15 450 300 nop 0;
#X obj 86 30 inlet;
#X obj 86 55 outlet;
#X connect 0 0 1 0;
#X restore 215 34 pd nop;
#N canvas 0 15 450 300 nop 0;
#X obj 86 30 inlet;
#X obj 86 55 outlet;
#X connect 0 0 1 0;
#X restore 167 34 pd nop;
#X obj 91 158 loadbang;
#X connect 0 0 14 0;
#X connect 3 0 1 0;
#X connect 4 0 5 0;
#X connect 5 0 1 0;
#X connect 6 0 7 0;
#X connect 6 1 5 0;
#X connect 7 0 1 0;
#X connect 8 0 11 0;
#X connect 8 1 1 0;
#X connect 8 2 10 0;
#X connect 10 0 9 0;
#X connect 11 0 9 0;
#X connect 13 0 16 0;
#X connect 14 0 6 0;
#X connect 14 1 17 0;
#X connect 14 2 16 0;
#X connect 14 3 13 0;
#X connect 14 4 15 0;
#X connect 15 0 1 0;
#X connect 16 0 8 0;
#X connect 17 0 2 0;
#X connect 18 0 3 0;
#X restore 57 30 pd guts;
#X obj 101 462 spigot 1;
#X obj 152 442 r \$0-output_toggle;
#X obj 564 476 outlet;
#X obj 564 27 inlet;
#X text 377 6 gets index values \, ends up outputing |index volume
(;
#X obj 101 159 x37v-step_seq_row;
#X obj 101 102 x37v-step_seq_row;
#X obj 101 140 x37v-step_seq_row;
#X obj 101 121 x37v-step_seq_row;
#X obj 101 181 x37v-step_seq_row;
#X obj 101 200 x37v-step_seq_row;
#X obj 101 219 x37v-step_seq_row;
#X obj 101 238 x37v-step_seq_row;
#X obj 101 260 x37v-step_seq_row;
#X obj 101 279 x37v-step_seq_row;
#X obj 101 298 x37v-step_seq_row;
#X obj 101 317 x37v-step_seq_row;
#X obj 101 339 x37v-step_seq_row;
#X obj 101 358 x37v-step_seq_row;
#X obj 101 377 x37v-step_seq_row;
#X obj 101 396 x37v-step_seq_row;
#X connect 1 0 20 0;
#X connect 4 0 3 0;
#X connect 4 1 5 0;
#X connect 4 2 6 0;
#X connect 4 3 7 0;
#X connect 4 4 8 0;
#X connect 4 5 9 0;
#X connect 4 6 10 0;
#X connect 4 7 11 0;
#X connect 4 8 12 0;
#X connect 4 9 13 0;
#X connect 4 10 14 0;
#X connect 4 11 15 0;
#X connect 4 12 16 0;
#X connect 4 13 17 0;
#X connect 4 14 18 0;
#X connect 4 15 19 0;
#X connect 20 0 27 0;
#X connect 20 1 4 0;
#X connect 21 0 2 0;
#X connect 22 0 21 1;
#X connect 24 0 27 1;
#X connect 26 0 30 0;
#X connect 26 1 30 1;
#X connect 27 0 29 0;
#X connect 27 1 29 1;
#X connect 28 0 26 0;
#X connect 28 1 26 1;
#X connect 29 0 28 0;
#X connect 29 1 28 1;
#X connect 30 0 31 0;
#X connect 30 1 31 1;
#X connect 31 0 32 0;
#X connect 31 1 32 1;
#X connect 32 0 33 0;
#X connect 32 1 33 1;
#X connect 33 0 34 0;
#X connect 33 1 34 1;
#X connect 34 0 35 0;
#X connect 34 1 35 1;
#X connect 35 0 36 0;
#X connect 35 1 36 1;
#X connect 36 0 37 0;
#X connect 36 1 37 1;
#X connect 37 0 38 0;
#X connect 37 1 38 1;
#X connect 38 0 39 0;
#X connect 38 1 39 1;
#X connect 39 0 40 0;
#X connect 39 1 40 1;
#X connect 40 0 41 0;
#X connect 40 1 41 1;
#X connect 41 0 21 0;
#X connect 41 1 23 0;
#X coords 0 -1 1 1 472 340 2 100 80;
