#N canvas 0 15 725 546 10;
#X obj 125 245 timer;
#X obj 70 153 x37v-count 4;
#X obj 102 278 pack f f;
#X obj 70 175 sel 0;
#X obj 102 198 t f b b;
#X obj 102 302 route 3 2 1;
#X obj 126 328 + 0;
#X obj 102 351 + 0;
#X obj 102 372 / 3;
#X obj 102 416 delay;
#X obj 102 392 t f f;
#N canvas 279 225 450 300 timeout 0;
#X msg 127 128 clear;
#X obj 104 157 pipe 1000;
#X msg 104 190 set 0;
#X obj 104 70 t b b b;
#X obj 104 216 outlet;
#X obj 30 27 inlet;
#X obj 30 47 route reset;
#X obj 30 71 t b b;
#X connect 0 0 1 0;
#X connect 1 0 2 0;
#X connect 2 0 4 0;
#X connect 3 0 1 0;
#X connect 3 1 0 0;
#X connect 3 2 4 0;
#X connect 5 0 6 0;
#X connect 6 0 7 0;
#X connect 6 1 3 0;
#X connect 7 0 2 0;
#X connect 7 1 0 0;
#X restore 70 133 pd timeout;
#X text 175 245 find delays between bangs;
#X text 188 302 average the 3 delays;
#X obj 102 492 outlet;
#X obj 153 492 outlet;
#X text 158 135 after a second the count is reset;
#X obj 70 110 inlet;
#X text -243 418 delay 1 beat so the output bang is on the one ->;
#X text 68 62 after 1 second \, if no bang comes in \, the count is
reset \, so 4 new bangs are required to get an output;
#X text 165 6 Tempo Tapper by Alex Norman http://x37v.info;
#X text 68 32 after the 4th bang on the input outlets a bang on the
left [in time] and the beat delay on the right;
#X text 68 90 a |reset( message resets the count;
#X connect 0 0 2 1;
#X connect 1 0 3 0;
#X connect 2 0 5 0;
#X connect 3 0 0 0;
#X connect 3 1 4 0;
#X connect 4 0 2 0;
#X connect 4 1 0 0;
#X connect 4 2 0 1;
#X connect 5 0 7 0;
#X connect 5 1 6 0;
#X connect 5 2 6 1;
#X connect 6 0 7 1;
#X connect 7 0 8 0;
#X connect 8 0 10 0;
#X connect 9 0 14 0;
#X connect 10 0 9 0;
#X connect 10 1 15 0;
#X connect 11 0 1 0;
#X connect 17 0 11 0;
