#N canvas 96 159 646 210 10;
#X obj 6 -20 notein;
#X obj 6 1 pack f f f;
#X msg 6 24 \$3 \$1 \$2;
#X obj 6 45 route 1;
#X obj 6 154 print;
#X obj 6 132 x37v-midinotes_down_list;
#X msg 17 68 bang;
#X msg 23 88 clear;
#X text 61 69 <- output the current list;
#X text 71 89 <- clear the list;
#X text 85 -20 <- input notes from midi channel 1;
#X text 53 154 <- print the list of notes down;
#X text 372 -19 by Alex Norman (http://x37v.info);
#X text 371 -2 depends on the list-abs abstractions;
#X connect 0 0 1 0;
#X connect 0 1 1 1;
#X connect 0 2 1 2;
#X connect 1 0 2 0;
#X connect 2 0 3 0;
#X connect 3 0 5 0;
#X connect 5 0 4 0;
#X connect 6 0 5 0;
#X connect 7 0 5 0;
